<mxfile host="65bd71144e">
    <diagram id="JlqRZCWxKjWrXs2iuSrK" name="Page-1">
        <mxGraphModel dx="816" dy="429" grid="1" gridSize="10" guides="1" tooltips="1" connect="1" arrows="1" fold="1" page="1" pageScale="1" pageWidth="827" pageHeight="1169" math="0" shadow="0">
            <root>
                <mxCell id="0"/>
                <mxCell id="1" parent="0"/>
                <mxCell id="4" value="&lt;b&gt;&lt;font style=&quot;font-size: 21px&quot;&gt;Docker&lt;/font&gt;&lt;/b&gt;" style="ellipse;whiteSpace=wrap;html=1;" vertex="1" parent="1">
                    <mxGeometry x="550" width="270" height="190" as="geometry"/>
                </mxCell>
                <mxCell id="20" value="" style="edgeStyle=none;html=1;fontSize=21;" edge="1" parent="1" source="2" target="6">
                    <mxGeometry relative="1" as="geometry"/>
                </mxCell>
                <mxCell id="2" value="Apache Container" style="rounded=0;whiteSpace=wrap;html=1;" vertex="1" parent="1">
                    <mxGeometry x="627.5" y="20" width="115" height="50" as="geometry"/>
                </mxCell>
                <mxCell id="5" value="Apache Container" style="rounded=0;whiteSpace=wrap;html=1;" vertex="1" parent="1">
                    <mxGeometry x="570" y="70" width="52.5" height="50" as="geometry"/>
                </mxCell>
                <mxCell id="6" value="Apache Container" style="rounded=0;whiteSpace=wrap;html=1;" vertex="1" parent="1">
                    <mxGeometry x="752.5" y="70" width="54" height="50" as="geometry"/>
                </mxCell>
                <mxCell id="7" value="Apache Container" style="rounded=0;whiteSpace=wrap;html=1;" vertex="1" parent="1">
                    <mxGeometry x="627.5" y="120" width="115" height="50" as="geometry"/>
                </mxCell>
                <mxCell id="10" value="" style="shape=flexArrow;endArrow=classic;startArrow=classic;html=1;fontSize=21;width=28;startSize=10.79;endSize=9.07;entryX=0.286;entryY=0.965;entryDx=0;entryDy=0;entryPerimeter=0;exitX=0.5;exitY=0;exitDx=0;exitDy=0;" edge="1" parent="1" source="17" target="4">
                    <mxGeometry width="100" height="100" relative="1" as="geometry">
                        <mxPoint x="520" y="330" as="sourcePoint"/>
                        <mxPoint x="670" y="330" as="targetPoint"/>
                    </mxGeometry>
                </mxCell>
                <mxCell id="11" value="Django" style="ellipse;whiteSpace=wrap;html=1;fontSize=21;" vertex="1" parent="1">
                    <mxGeometry x="30" y="20" width="190" height="100" as="geometry"/>
                </mxCell>
                <mxCell id="13" value="" style="shape=flexArrow;endArrow=classic;startArrow=classic;html=1;fontSize=21;width=28;startSize=10.79;endSize=9.07;exitX=0.5;exitY=1;exitDx=0;exitDy=0;" edge="1" parent="1" source="11" target="14">
                    <mxGeometry width="100" height="100" relative="1" as="geometry">
                        <mxPoint x="190" y="200" as="sourcePoint"/>
                        <mxPoint x="190" y="310" as="targetPoint"/>
                        <Array as="points">
                            <mxPoint x="125" y="220"/>
                            <mxPoint x="190" y="250"/>
                        </Array>
                    </mxGeometry>
                </mxCell>
                <mxCell id="14" value="ORM -&amp;gt; psycopg2" style="ellipse;whiteSpace=wrap;html=1;fontSize=21;" vertex="1" parent="1">
                    <mxGeometry x="20" y="400" width="200" height="90" as="geometry"/>
                </mxCell>
                <mxCell id="16" value="" style="shape=flexArrow;endArrow=classic;startArrow=classic;html=1;fontSize=21;width=28;startSize=10.79;endSize=9.07;entryX=0;entryY=0.5;entryDx=0;entryDy=0;exitX=1;exitY=0.5;exitDx=0;exitDy=0;" edge="1" parent="1" source="14" target="17">
                    <mxGeometry width="100" height="100" relative="1" as="geometry">
                        <mxPoint x="230" y="364.5" as="sourcePoint"/>
                        <mxPoint x="380" y="364.5" as="targetPoint"/>
                    </mxGeometry>
                </mxCell>
                <mxCell id="17" value="PostresSQL" style="ellipse;whiteSpace=wrap;html=1;fontSize=21;" vertex="1" parent="1">
                    <mxGeometry x="557.5" y="402.5" width="157.5" height="85" as="geometry"/>
                </mxCell>
                <mxCell id="18" value="" style="shape=flexArrow;endArrow=classic;startArrow=classic;html=1;fontSize=21;width=28;startSize=10.79;endSize=9.07;entryX=0;entryY=0.5;entryDx=0;entryDy=0;" edge="1" parent="1" target="4">
                    <mxGeometry width="100" height="100" relative="1" as="geometry">
                        <mxPoint x="220" y="69.5" as="sourcePoint"/>
                        <mxPoint x="370" y="69.5" as="targetPoint"/>
                        <Array as="points">
                            <mxPoint x="290" y="69.5"/>
                        </Array>
                    </mxGeometry>
                </mxCell>
                <mxCell id="19" value="DJango로 Back단 구성, DJango ORM 기술인 Psycopg2를 이용하여 PostreSQL 문법에 맞게 자동 변환(PHP와도 호환 가능)배포는 Apache 컨테이너를 이용해 Docker에 올려 배포" style="whiteSpace=wrap;html=1;aspect=fixed;fontSize=21;" vertex="1" parent="1">
                    <mxGeometry x="230" y="120" width="280" height="280" as="geometry"/>
                </mxCell>
            </root>
        </mxGraphModel>
    </diagram>
</mxfile>